<!-- icon666.com - MILLIONS OF FREE VECTOR ICONS --><svg id="Layer_1" viewBox="0 0 24 24" xmlns="http://www.w3.org/2000/svg" data-name="Layer 1"><path d="m21.64 5.92-.73 7.22a2.733 2.733 0 0 1 -2.55 2.47l-11.66.78-.1.01-1.43.1c-.02-.11-.03-.22-.04-.33l-.03-.42-.71-11.43a.736.736 0 0 1 .61-.32h14.9a1.765 1.765 0 0 1 1.74 1.92z" fill="#6ebdf4"></path><g fill="#42a5f5"><path d="m21.75 18a.755.755 0 0 1 -.75.75h-13.12a2.757 2.757 0 0 1 -2.71-2.25c-.02-.11-.03-.22-.04-.33l-.03-.42-.71-11.43-.04-.69-.04-.65a.251.251 0 0 0 -.25-.23h-2.06a.75.75 0 0 1 0-1.5h2.06a1.759 1.759 0 0 1 1.75 1.64l.02.36.05.75.72 11.65.03.43a1.076 1.076 0 0 0 .07.31 1.231 1.231 0 0 0 1.18.86h13.12a.755.755 0 0 1 .75.75z"></path><circle cx="10.375" cy="20.375" r="2.375"></circle><circle cx="17.375" cy="20.375" r="2.375"></circle></g><path d="m10.5 11.25a.75.75 0 0 1 -.75-.75v-3a.75.75 0 0 1 1.5 0v3a.75.75 0 0 1 -.75.75z" fill="#f4f4f4"></path><path d="m16.5 11.25a.75.75 0 0 1 -.75-.75v-3a.75.75 0 0 1 1.5 0v3a.75.75 0 0 1 -.75.75z" fill="#f4f4f4"></path><path d="m13.5 11.75a.75.75 0 0 1 -.75-.75v-4a.75.75 0 0 1 1.5 0v4a.75.75 0 0 1 -.75.75z" fill="#f4f4f4"></path></svg>